<svg width="12" height="12" viewBox="0 0 12 12" fill="none" xmlns="http://www.w3.org/2000/svg">
<path d="M1.49514 3.31378C1.43694 3.37183 1.39076 3.4408 1.35925 3.51674C1.32774 3.59267 1.31152 3.67407 1.31152 3.75628C1.31152 3.83849 1.32774 3.91989 1.35925 3.99582C1.39076 4.07175 1.43694 4.14072 1.49514 4.19878L5.65014 8.35378C5.6964 8.40013 5.75134 8.4369 5.81183 8.46199C5.87232 8.48708 5.93716 8.5 6.00264 8.5C6.06812 8.5 6.13297 8.48708 6.19345 8.46199C6.25394 8.4369 6.30888 8.40013 6.35514 8.35378L10.5101 4.19878C10.7551 3.95378 10.7551 3.55878 10.5101 3.31378C10.2651 3.06878 9.87014 3.06878 9.62514 3.31378L6.00014 6.93378L2.37514 3.30878C2.13514 3.06878 1.73514 3.06878 1.49514 3.31378Z" fill="#18191A"/>
</svg>
