<svg width="16" height="16" viewBox="0 0 16 16" fill="none" xmlns="http://www.w3.org/2000/svg">
<g clip-path="url(#clip0_301_1389)">
<path d="M8 3.85714C7.08929 3.85714 6.23772 4.01228 5.44531 4.32254C4.6529 4.63281 4.02344 5.05134 3.55692 5.57812C3.0904 6.10491 2.85714 6.67411 2.85714 7.28571C2.85714 7.78571 3.01674 8.26228 3.33594 8.7154C3.65513 9.16853 4.10491 9.56027 4.68527 9.89062L5.26786 10.2254L5.08705 10.8683C4.97991 11.2746 4.82366 11.6585 4.6183 12.0201C5.29688 11.7388 5.91071 11.3571 6.45982 10.875L6.74777 10.6205L7.12946 10.6607C7.4375 10.6964 7.72768 10.7143 8 10.7143C8.91071 10.7143 9.76228 10.5592 10.5547 10.2489C11.3471 9.93862 11.9766 9.52009 12.4431 8.9933C12.9096 8.46652 13.1429 7.89732 13.1429 7.28571C13.1429 6.67411 12.9096 6.10491 12.4431 5.57812C11.9766 5.05134 11.3471 4.63281 10.5547 4.32254C9.76228 4.01228 8.91071 3.85714 8 3.85714ZM14 7.28571C14 8.0625 13.7321 8.78013 13.1964 9.43862C12.6607 10.0971 11.933 10.6172 11.0134 10.9989C10.0938 11.3806 9.08929 11.5714 8 11.5714C7.6875 11.5714 7.36384 11.5536 7.02902 11.5179C6.14509 12.2991 5.1183 12.8393 3.94866 13.1384C3.72991 13.2009 3.47545 13.25 3.18527 13.2857H3.15179C3.08482 13.2857 3.02455 13.2623 2.97098 13.2154C2.91741 13.1685 2.8817 13.1071 2.86384 13.0312V13.0246C2.85045 13.0067 2.84933 12.9799 2.86049 12.9442C2.87165 12.9085 2.87612 12.8862 2.87388 12.8772C2.87165 12.8683 2.8817 12.8471 2.90402 12.8136L2.9442 12.7533L2.99107 12.6964L3.04464 12.6362C3.07589 12.6004 3.14509 12.5234 3.25223 12.4051C3.35938 12.2868 3.43638 12.202 3.48326 12.1507C3.53013 12.0993 3.59933 12.0112 3.69085 11.8862C3.78237 11.7612 3.85491 11.6473 3.90848 11.5446C3.96205 11.442 4.02232 11.3103 4.08929 11.1496C4.15625 10.9888 4.21429 10.8192 4.26339 10.6406C3.5625 10.2433 3.01004 9.75223 2.60603 9.16741C2.20201 8.58259 2 7.95536 2 7.28571C2 6.50893 2.26786 5.79129 2.80357 5.13281C3.33929 4.47433 4.06696 3.95424 4.98661 3.57254C5.90625 3.19085 6.91071 3 8 3C9.08929 3 10.0938 3.19085 11.0134 3.57254C11.933 3.95424 12.6607 4.47433 13.1964 5.13281C13.7321 5.79129 14 6.50893 14 7.28571Z" fill="#87898C"/>
</g>
<defs>
<clipPath id="clip0_301_1389">
<rect width="12" height="10.2857" fill="white" transform="translate(2 3)"/>
</clipPath>
</defs>
</svg>
