<svg width="16" height="16" viewBox="0 0 16 16" fill="none" xmlns="http://www.w3.org/2000/svg">
<path d="M13.8422 8.33917C14.1047 7.9923 14.25 7.5673 14.25 7.12511C14.25 6.42355 13.8578 5.75948 13.2266 5.38917C13.0641 5.29385 12.879 5.24368 12.6906 5.24386H8.94375L9.0375 3.32355C9.05938 2.85948 8.89531 2.41886 8.57656 2.08292C8.42013 1.91734 8.23141 1.7856 8.02206 1.69584C7.8127 1.60607 7.58716 1.5602 7.35938 1.56105C6.54688 1.56105 5.82812 2.10792 5.6125 2.89073L4.27031 7.75011H2.25C1.97344 7.75011 1.75 7.97355 1.75 8.25011V13.9376C1.75 14.2142 1.97344 14.4376 2.25 14.4376H11.6453C11.7891 14.4376 11.9297 14.4095 12.0594 14.3532C12.8031 14.036 13.2828 13.3095 13.2828 12.5032C13.2828 12.3064 13.2547 12.1126 13.1984 11.9251C13.4609 11.5782 13.6062 11.1532 13.6062 10.711C13.6062 10.5142 13.5781 10.3204 13.5219 10.1329C13.7844 9.78605 13.9297 9.36105 13.9297 8.91886C13.9266 8.72198 13.8984 8.52667 13.8422 8.33917ZM2.875 13.3126V8.87511H4.14062V13.3126H2.875ZM12.8188 7.79699L12.4766 8.09386L12.6938 8.49074C12.7653 8.62147 12.8024 8.76827 12.8016 8.9173C12.8016 9.17511 12.6891 9.42042 12.4953 9.58917L12.1531 9.88605L12.3703 10.2829C12.4419 10.4137 12.479 10.5605 12.4781 10.7095C12.4781 10.9673 12.3656 11.2126 12.1719 11.3814L11.8297 11.6782L12.0469 12.0751C12.1184 12.2058 12.1555 12.3526 12.1547 12.5017C12.1547 12.8517 11.9484 13.1673 11.6297 13.311H5.14062V8.82511L6.69531 3.1923C6.7354 3.04792 6.82146 2.92055 6.94044 2.82948C7.05943 2.73841 7.20485 2.6886 7.35469 2.68761C7.47344 2.68761 7.59062 2.72198 7.68437 2.7923C7.83906 2.90792 7.92188 3.08292 7.9125 3.26886L7.7625 6.36886H12.675C12.9531 6.53917 13.125 6.82667 13.125 7.12511C13.125 7.38292 13.0125 7.62667 12.8188 7.79699Z" fill="#87898C"/>
</svg>
