<svg width="16" height="16" viewBox="0 0 16 16" fill="none" xmlns="http://www.w3.org/2000/svg">
<path d="M8 2.5C13 2.5 16 8 16 8C16 8 13 13.5 8 13.5C3 13.5 0 8 0 8C0 8 3 2.5 8 2.5ZM8 3.5C4.48 3.5 1.998 6.751 1.175 8C1.997 9.248 4.479 12.5 8 12.5C11.52 12.5 14.002 9.249 14.825 8C14.003 6.752 11.521 3.5 8 3.5ZM8 4.5C8.92826 4.5 9.8185 4.86875 10.4749 5.52513C11.1313 6.1815 11.5 7.07174 11.5 8C11.5 8.92826 11.1313 9.8185 10.4749 10.4749C9.8185 11.1313 8.92826 11.5 8 11.5C7.07174 11.5 6.1815 11.1313 5.52513 10.4749C4.86875 9.8185 4.5 8.92826 4.5 8C4.5 7.07174 4.86875 6.1815 5.52513 5.52513C6.1815 4.86875 7.07174 4.5 8 4.5ZM8 5.5C7.3372 5.50079 6.70178 5.76444 6.23311 6.23311C5.76444 6.70178 5.50079 7.3372 5.5 8C5.5 9.378 6.621 10.5 8 10.5C9.379 10.5 10.5 9.378 10.5 8C10.5 6.622 9.379 5.5 8 5.5Z" fill="#87898C"/>
</svg>
